<svg version="1.1" id="Layer_1" xmlns="http://www.w3.org/2000/svg" xmlns:xlink="http://www.w3.org/1999/xlink" x="0px" y="0px"
	 width="100%" height="120" viewBox="0 0 200 200" enable-background="new 0 0 200 200" xml:space="preserve">
<path fill="#30B2BD" opacity="1.000000" stroke="none" 
	d="
M1.000000,56.468658 
	C4.011785,51.896812 8.052637,50.787289 13.067616,50.899429 
	C25.863605,51.185562 38.670322,50.970234 51.472618,51.004490 
	C58.664707,51.023731 61.815674,54.123417 61.845711,61.317448 
	C61.901939,74.784660 61.913540,88.252556 61.840069,101.719604 
	C61.802589,108.589447 58.583496,111.804001 51.707214,111.840332 
	C38.073887,111.912369 24.439869,111.843437 10.806219,111.871857 
	C6.601558,111.880615 3.400258,110.315788 1.275400,106.200577 
	C1.000000,89.645775 1.000000,73.291542 1.000000,56.468658 
M15.062021,76.672691 
	C15.289228,82.303291 16.628626,83.511299 22.090450,84.131279 
	C23.614698,84.304291 24.988308,85.804382 26.431023,86.695679 
	C24.915010,87.834564 23.547510,89.456718 21.842524,89.980690 
	C20.023775,90.539619 17.834034,89.783104 15.908156,90.144257 
	C14.835521,90.345390 13.970380,91.653030 13.011731,92.461998 
	C13.837386,93.258438 14.585048,94.617119 15.503508,94.744522 
	C18.122677,95.107864 20.820356,95.137558 23.470848,94.995140 
	C29.279457,94.683029 31.884718,91.695824 32.005726,85.507103 
	C32.112423,80.050171 28.739805,78.953491 24.146852,78.838188 
	C22.936405,78.807808 21.764860,77.227745 20.575451,76.359299 
	C21.843559,75.136833 22.927097,73.288399 24.425390,72.846619 
	C26.403315,72.263412 28.729040,72.976967 30.858206,72.729042 
	C31.655931,72.636139 32.811195,71.470711 32.909954,70.682350 
	C33.008904,69.892441 32.189003,68.470772 31.435507,68.170776 
	C24.032808,65.223518 17.148884,68.540039 15.062021,76.672691 
M42.626617,95.012642 
	C50.452042,95.012283 50.452042,95.012283 50.381680,89.986847 
	C48.596714,89.986847 46.776917,89.826500 44.995441,90.019630 
	C41.073792,90.444771 40.100616,88.853813 40.816826,85.117828 
	C41.811131,79.931244 42.360352,74.658440 43.047836,69.415688 
	C43.101841,69.003883 42.747009,68.538460 42.492748,67.858925 
	C41.041359,67.944077 39.615704,68.027718 38.039894,68.120171 
	C37.117554,73.612267 36.233231,78.820686 35.374950,84.033394 
	C35.186874,85.175652 35.048180,86.329903 34.960735,87.484238 
	C34.498257,93.589317 35.408062,94.592461 42.626617,95.012642 
z"/>
<path fill="#47BBC4" opacity="1.000000" stroke="none" 
	d="
M158.568268,87.011650 
	C156.746643,86.584930 154.926285,85.792946 153.103226,85.786728 
	C128.870575,85.703941 104.637550,85.732414 80.404617,85.729637 
	C77.943748,85.729355 75.018631,86.209213 76.472328,81.427368 
	C87.815025,81.427368 99.234947,81.427368 111.366508,81.159561 
	C112.907036,80.288536 113.735924,79.685318 114.564812,79.082100 
	C115.884666,79.911705 117.201988,81.460266 118.524742,81.464920 
	C145.730972,81.560722 172.937820,81.480598 200.572266,81.217712 
	C201.000000,82.388893 201.000000,83.777779 201.000000,85.583344 
	C188.015244,86.068962 175.030472,86.137924 161.501984,86.615402 
	C160.161606,87.019829 159.364929,87.015739 158.568268,87.011650 
z"/>
<path fill="#41B8C2" opacity="1.000000" stroke="none" 
	d="
M97.751923,55.194187 
	C94.289192,55.374649 89.998627,53.370136 89.943443,59.242294 
	C97.752602,61.423393 99.295540,63.407055 97.686340,68.973152 
	C96.340454,73.628479 91.927010,74.901878 83.155212,72.283119 
	C84.997597,70.941727 86.020294,69.823952 87.279045,69.388435 
	C88.473457,68.975174 90.009354,69.567253 91.219322,69.175034 
	C92.265976,68.835747 93.065948,67.735497 93.974968,66.971619 
	C93.151886,66.217911 92.379753,65.397186 91.495033,64.724548 
	C89.695389,63.356319 86.376961,62.140953 86.306458,60.731453 
	C86.164558,57.894272 86.942268,53.874332 88.897430,52.381687 
	C90.942848,50.820133 94.816277,51.653008 97.890656,51.439247 
	C97.966812,52.671997 98.042976,53.904755 97.751923,55.194187 
z"/>
<path fill="#3BB6C0" opacity="1.000000" stroke="none" 
	d="
M114.769188,78.712692 
	C113.735924,79.685318 112.907036,80.288536 111.851059,80.984962 
	C111.441338,78.679192 111.258720,76.280205 111.138367,74.699188 
	C108.632217,73.190323 104.634193,71.936333 104.579552,70.529213 
	C104.429314,66.660408 104.863472,61.841831 107.128456,59.106632 
	C108.865822,57.008587 113.737907,57.506359 118.208481,56.662235 
	C116.958076,65.042717 115.965820,71.693001 114.769188,78.712692 
M108.110558,64.772041 
	C108.493584,66.417366 108.823677,68.080307 109.355034,69.676247 
	C109.399994,69.811287 111.369553,69.677155 111.466286,69.364891 
	C112.281410,66.733574 112.868347,64.031578 113.523895,61.350830 
	C112.908203,61.013035 112.292511,60.675236 111.676819,60.337440 
	C110.543961,61.544376 109.411095,62.751316 108.110558,64.772041 
z"/>
<path fill="#40B8C2" opacity="1.000000" stroke="none" 
	d="
M158.326660,87.357742 
	C159.364929,87.015739 160.161606,87.019829 161.259216,87.017365 
	C161.497696,88.967827 161.487793,90.928352 161.357269,92.880821 
	C161.236923,94.681335 160.987076,96.473190 160.698822,99.157684 
	C163.554825,96.701370 165.741592,94.820625 167.928375,92.939873 
	C168.448914,93.420685 168.969467,93.901497 169.490005,94.382301 
	C168.140244,96.740585 165.953278,99.007210 165.682129,101.483597 
	C165.424149,103.839973 167.167236,106.415436 168.032150,108.899269 
	C166.464813,109.347504 164.503418,107.731674 160.459930,102.667450 
	C159.978760,104.680283 159.869385,106.517433 159.074875,107.983223 
	C158.532242,108.984337 157.033417,109.467171 155.962082,110.181717 
	C155.617004,109.880821 155.271942,109.579926 154.926865,109.279030 
	C155.979584,102.087303 157.032318,94.895569 158.326660,87.357742 
z"/>
<path fill="#45BAC4" opacity="1.000000" stroke="none" 
	d="
M182.485764,68.438248 
	C184.808411,69.260361 187.131073,70.082481 189.448318,70.902687 
	C188.313919,73.947647 181.632187,75.287224 179.829254,72.130569 
	C178.456741,69.727531 178.222870,66.049263 178.905579,63.290554 
	C179.474670,60.990906 181.741821,58.313721 183.923248,57.407204 
	C186.831039,56.198837 190.462173,56.659695 191.151138,60.998608 
	C191.746964,64.750801 190.110733,67.092926 186.093674,67.352531 
	C185.431381,67.395325 184.767212,67.409004 183.563980,67.378494 
	C182.844620,67.693314 182.665192,68.065781 182.485764,68.438248 
z"/>
<path fill="#42B9C3" opacity="1.000000" stroke="none" 
	d="
M127.023926,73.683037 
	C125.538139,72.249680 123.517586,70.847740 123.490524,69.408333 
	C123.425789,65.963737 124.103188,62.454140 124.919052,59.076599 
	C125.149750,58.121552 126.892288,57.531696 129.068665,55.960648 
	C128.516251,61.185898 128.138458,64.759483 127.760658,68.333069 
	C128.163055,68.713402 128.565445,69.093735 128.967850,69.474068 
	C130.161072,68.389870 131.882751,67.517288 132.421814,66.171143 
	C133.201355,64.224495 132.850800,61.845154 133.513382,59.824543 
	C133.922729,58.576218 135.318207,57.651249 136.270981,56.581116 
	C136.790298,56.876350 137.309616,57.171581 137.828949,57.466812 
	C137.190170,62.335197 136.640991,67.219070 135.805603,72.053482 
	C135.694138,72.698494 134.174942,73.411827 133.233826,73.536613 
	C131.314377,73.791115 129.344589,73.666092 127.023926,73.683037 
z"/>
<path fill="#40B8C2" opacity="1.000000" stroke="none" 
	d="
M148.054703,107.987854 
	C146.918396,108.954430 145.834274,109.513008 143.897156,110.511093 
	C144.348190,105.658943 144.691330,101.967613 145.034470,98.276283 
	C144.567566,97.941628 144.100662,97.606972 143.633759,97.272316 
	C142.457809,98.495201 140.805588,99.528061 140.223206,100.987762 
	C139.447922,102.930954 139.764664,105.291046 139.106461,107.306892 
	C138.721512,108.485786 137.351379,109.342987 136.424454,110.344902 
	C135.920990,110.030724 135.417526,109.716553 134.914062,109.402374 
	C135.619858,104.226097 136.325668,99.049820 137.021713,93.945091 
	C140.026291,93.665558 142.830551,92.812782 145.305176,93.385178 
	C146.920578,93.758827 149.057114,96.114525 149.197510,97.735077 
	C149.476929,100.960976 148.540833,104.292168 148.054703,107.987854 
z"/>
<path fill="#40B8C2" opacity="1.000000" stroke="none" 
	d="
M143.519531,64.661629 
	C144.281891,60.319397 146.047241,57.440849 150.489853,57.084183 
	C155.687500,56.666901 157.359009,58.459080 156.539185,63.609978 
	C156.097977,66.382080 155.692017,69.159943 155.227188,71.927994 
	C155.149979,72.387779 154.852036,72.810509 154.670715,73.217590 
	C143.371567,73.528625 142.691483,73.031303 143.519531,64.661629 
M152.639252,62.510136 
	C152.467331,62.076218 152.392670,61.346523 152.108765,61.253166 
	C148.402328,60.034370 147.731705,62.874371 147.479874,65.290733 
	C147.327530,66.752625 148.456604,68.348061 149.009949,69.883492 
	C150.053482,68.336052 151.153946,66.822571 152.108521,65.222069 
	C152.426392,64.689102 152.370422,63.933140 152.639252,62.510136 
z"/>
<path fill="#40B8C2" opacity="1.000000" stroke="none" 
	d="
M106.801270,99.597656 
	C107.263954,96.045631 107.414345,92.867455 108.183777,89.846977 
	C108.497169,88.616722 110.154320,87.728767 111.200096,86.685074 
	C111.613991,87.020706 112.027893,87.356339 112.441795,87.691971 
	C111.925400,91.756432 111.629723,95.864815 110.831932,99.873268 
	C109.996162,104.072571 110.881775,106.325386 115.653801,105.651619 
	C116.251160,105.567276 116.900902,105.853996 117.516792,105.967026 
	C118.468590,109.577103 116.486237,110.089958 113.771736,109.911087 
	C110.620392,109.703438 106.627892,110.901703 106.131050,105.928955 
	C105.938690,104.003716 106.512970,102.001884 106.801270,99.597656 
z"/>
<path fill="#40B8C2" opacity="1.000000" stroke="none" 
	d="
M166.987534,68.149094 
	C166.413361,70.870872 167.334290,74.438416 162.216187,73.290817 
	C162.867432,68.416046 163.445160,63.558475 164.246948,58.738163 
	C164.351746,58.108025 165.588821,57.252827 166.332718,57.220467 
	C168.501587,57.126118 170.686295,57.396057 173.806534,57.578117 
	C172.933502,59.135883 172.269089,61.581623 171.400833,61.656273 
	C167.257782,62.012455 167.420944,64.975723 166.987534,68.149094 
z"/>
<path fill="#45BAC4" opacity="1.000000" stroke="none" 
	d="
M129.845886,95.345352 
	C129.271851,99.525520 128.879181,103.337227 128.065857,107.056976 
	C127.794083,108.299942 126.447205,109.307846 125.591774,110.423203 
	C124.970268,110.138657 124.348763,109.854111 123.727257,109.569565 
	C124.410088,104.722260 124.779137,99.800858 125.899368,95.056831 
	C126.520966,92.424400 128.440140,92.118507 129.845886,95.345352 
z"/>
<path fill="#F2FAFB" opacity="1.000000" stroke="none" 
	d="
M15.103621,76.266945 
	C17.148884,68.540039 24.032808,65.223518 31.435507,68.170776 
	C32.189003,68.470772 33.008904,69.892441 32.909954,70.682350 
	C32.811195,71.470711 31.655931,72.636139 30.858206,72.729042 
	C28.729040,72.976967 26.403315,72.263412 24.425390,72.846619 
	C22.927097,73.288399 21.843559,75.136833 20.575451,76.359299 
	C21.764860,77.227745 22.936405,78.807808 24.146852,78.838188 
	C28.739805,78.953491 32.112423,80.050171 32.005726,85.507103 
	C31.884718,91.695824 29.279457,94.683029 23.470848,94.995140 
	C20.820356,95.137558 18.122677,95.107864 15.503508,94.744522 
	C14.585048,94.617119 13.837386,93.258438 13.011730,92.462006 
	C13.970380,91.653030 14.835521,90.345390 15.908156,90.144257 
	C17.834034,89.783104 20.023775,90.539619 21.842524,89.980690 
	C23.547510,89.456718 24.915010,87.834564 26.431023,86.695679 
	C24.988308,85.804382 23.614698,84.304291 22.090450,84.131279 
	C16.628626,83.511299 15.289228,82.303291 15.103621,76.266945 
z"/>
<path fill="#F6FCFC" opacity="1.000000" stroke="none" 
	d="
M42.175354,95.012390 
	C35.408062,94.592461 34.498257,93.589317 34.960735,87.484238 
	C35.048180,86.329903 35.186874,85.175652 35.374950,84.033394 
	C36.233231,78.820686 37.117554,73.612267 38.039894,68.120171 
	C39.615704,68.027718 41.041359,67.944077 42.492748,67.858925 
	C42.747009,68.538460 43.101841,69.003883 43.047836,69.415688 
	C42.360352,74.658440 41.811131,79.931244 40.816826,85.117828 
	C40.100616,88.853813 41.073792,90.444771 44.995441,90.019630 
	C46.776917,89.826500 48.596714,89.986847 50.381680,89.986847 
	C50.452042,95.012283 50.452042,95.012283 42.175354,95.012390 
z"/>
<path fill="#EEF9F9" opacity="1.000000" stroke="none" 
	d="
M108.194397,64.365143 
	C109.411095,62.751316 110.543961,61.544376 111.676819,60.337440 
	C112.292511,60.675236 112.908203,61.013035 113.523895,61.350830 
	C112.868347,64.031578 112.281410,66.733574 111.466286,69.364891 
	C111.369553,69.677155 109.399994,69.811287 109.355034,69.676247 
	C108.823677,68.080307 108.493584,66.417366 108.194397,64.365143 
z"/>
<path fill="#FEFFFF" opacity="1.000000" stroke="none" 
	d="
M182.720551,68.232414 
	C182.665192,68.065781 182.844620,67.693314 183.208984,67.451424 
	C183.247726,67.730186 183.101547,67.878380 182.720551,68.232414 
z"/>
<path fill="#EEF9F9" opacity="1.000000" stroke="none" 
	d="
M152.562317,62.894630 
	C152.370422,63.933140 152.426392,64.689102 152.108521,65.222069 
	C151.153946,66.822571 150.053482,68.336052 149.009949,69.883492 
	C148.456604,68.348061 147.327530,66.752625 147.479874,65.290733 
	C147.731705,62.874371 148.402328,60.034370 152.108765,61.253166 
	C152.392670,61.346523 152.467331,62.076218 152.562317,62.894630 
z"/>
</svg>